<mxfile host="Electron" modified="2024-02-09T04:28:52.487Z" agent="Mozilla/5.0 (Windows NT 10.0; Win64; x64) AppleWebKit/537.36 (KHTML, like Gecko) draw.io/23.0.2 Chrome/120.0.6099.109 Electron/28.1.0 Safari/537.36" etag="KIXSw4-o1zJAS_fUSpLl" version="23.0.2" type="device">
  <diagram name="Page-1" id="8JKkuw7jpFS5prlgGScU">
    <mxGraphModel dx="1182" dy="790" grid="1" gridSize="10" guides="1" tooltips="1" connect="1" arrows="1" fold="1" page="1" pageScale="1" pageWidth="1169" pageHeight="827" math="0" shadow="0">
      <root>
        <mxCell id="0" />
        <mxCell id="1" parent="0" />
        <mxCell id="s7d4PtiqQZ2FRYvxOLde-13" value="" style="rounded=0;whiteSpace=wrap;html=1;dashed=1;" parent="1" vertex="1">
          <mxGeometry x="120" y="70" width="410" height="50" as="geometry" />
        </mxCell>
        <mxCell id="s7d4PtiqQZ2FRYvxOLde-1" value="price&lt;sub style=&quot;border-color: var(--border-color);&quot;&gt;t=n-2&lt;/sub&gt;" style="rounded=0;whiteSpace=wrap;html=1;" parent="1" vertex="1">
          <mxGeometry x="250" y="80" width="80" height="30" as="geometry" />
        </mxCell>
        <mxCell id="s7d4PtiqQZ2FRYvxOLde-2" value="price&lt;sub style=&quot;border-color: var(--border-color);&quot;&gt;t=n-1&lt;/sub&gt;" style="rounded=0;whiteSpace=wrap;html=1;" parent="1" vertex="1">
          <mxGeometry x="340" y="80" width="80" height="30" as="geometry" />
        </mxCell>
        <mxCell id="s7d4PtiqQZ2FRYvxOLde-3" value="price&lt;sub style=&quot;border-color: var(--border-color);&quot;&gt;t=n&lt;/sub&gt;" style="rounded=0;whiteSpace=wrap;html=1;" parent="1" vertex="1">
          <mxGeometry x="430" y="80" width="80" height="30" as="geometry" />
        </mxCell>
        <mxCell id="s7d4PtiqQZ2FRYvxOLde-4" value="price&lt;sub style=&quot;border-color: var(--border-color);&quot;&gt;t=n+1&lt;/sub&gt;" style="rounded=0;whiteSpace=wrap;html=1;" parent="1" vertex="1">
          <mxGeometry x="550" y="80" width="80" height="30" as="geometry" />
        </mxCell>
        <mxCell id="s7d4PtiqQZ2FRYvxOLde-31" value="price&lt;span style=&quot;border-color: var(--border-color);&quot;&gt;&lt;sub&gt;t=n-(m-1)&lt;/sub&gt;&lt;/span&gt;" style="rounded=0;whiteSpace=wrap;html=1;" parent="1" vertex="1">
          <mxGeometry x="140" y="80" width="80" height="30" as="geometry" />
        </mxCell>
        <mxCell id="s7d4PtiqQZ2FRYvxOLde-36" value="" style="endArrow=openThin;html=1;rounded=0;exitX=1;exitY=0.5;exitDx=0;exitDy=0;dashed=1;endFill=0;entryX=0;entryY=0.5;entryDx=0;entryDy=0;" parent="1" source="s7d4PtiqQZ2FRYvxOLde-37" target="s7d4PtiqQZ2FRYvxOLde-31" edge="1">
          <mxGeometry width="50" height="50" relative="1" as="geometry">
            <mxPoint x="89.64" y="110" as="sourcePoint" />
            <mxPoint x="90" y="140" as="targetPoint" />
          </mxGeometry>
        </mxCell>
        <mxCell id="s7d4PtiqQZ2FRYvxOLde-37" value="price&lt;span style=&quot;border-color: var(--border-color);&quot;&gt;&lt;sub&gt;t=n-m&lt;/sub&gt;&lt;/span&gt;" style="rounded=0;whiteSpace=wrap;html=1;" parent="1" vertex="1">
          <mxGeometry x="20" y="80" width="80" height="30" as="geometry" />
        </mxCell>
        <mxCell id="s7d4PtiqQZ2FRYvxOLde-41" value="" style="endArrow=openThin;html=1;rounded=0;exitX=1;exitY=0.5;exitDx=0;exitDy=0;dashed=1;endFill=0;" parent="1" edge="1">
          <mxGeometry width="50" height="50" relative="1" as="geometry">
            <mxPoint x="220" y="94.52" as="sourcePoint" />
            <mxPoint x="250" y="95" as="targetPoint" />
          </mxGeometry>
        </mxCell>
        <mxCell id="s7d4PtiqQZ2FRYvxOLde-44" value="" style="endArrow=openThin;html=1;rounded=0;exitX=1;exitY=0.5;exitDx=0;exitDy=0;dashed=1;endFill=0;entryX=0;entryY=0.5;entryDx=0;entryDy=0;" parent="1" edge="1">
          <mxGeometry width="50" height="50" relative="1" as="geometry">
            <mxPoint x="510" y="94.52" as="sourcePoint" />
            <mxPoint x="550" y="94.52" as="targetPoint" />
          </mxGeometry>
        </mxCell>
        <mxCell id="s7d4PtiqQZ2FRYvxOLde-45" value="Moving Window &lt;span style=&quot;font-weight: normal;&quot;&gt;&lt;i&gt;Size=M&lt;/i&gt;&lt;/span&gt;" style="text;html=1;strokeColor=none;fillColor=none;align=center;verticalAlign=middle;whiteSpace=wrap;rounded=0;fontStyle=1" parent="1" vertex="1">
          <mxGeometry x="220" y="40" width="200" height="30" as="geometry" />
        </mxCell>
        <mxCell id="s7d4PtiqQZ2FRYvxOLde-57" value="" style="shape=flexArrow;endArrow=classic;html=1;rounded=0;exitX=1;exitY=0.5;exitDx=0;exitDy=0;entryX=0;entryY=0.5;entryDx=0;entryDy=0;startSize=3;endSize=5;" parent="1" source="s7d4PtiqQZ2FRYvxOLde-55" target="s7d4PtiqQZ2FRYvxOLde-58" edge="1">
          <mxGeometry width="50" height="50" relative="1" as="geometry">
            <mxPoint x="450" y="240" as="sourcePoint" />
            <mxPoint x="460" y="195" as="targetPoint" />
          </mxGeometry>
        </mxCell>
        <mxCell id="s7d4PtiqQZ2FRYvxOLde-58" value="&lt;font style=&quot;&quot;&gt;&lt;b style=&quot;&quot;&gt;&lt;font style=&quot;font-size: 10px;&quot;&gt;Trading Signals&lt;/font&gt;&lt;/b&gt;&lt;br&gt;&lt;/font&gt;&lt;ul style=&quot;font-size: 9px;&quot;&gt;&lt;li style=&quot;text-align: left;&quot;&gt;&lt;font style=&quot;font-size: 9px;&quot;&gt;Long leg&lt;sub&gt;0&lt;/sub&gt; Short leg&lt;sub&gt;1&lt;/sub&gt;&lt;/font&gt;&lt;/li&gt;&lt;li style=&quot;text-align: left;&quot;&gt;&lt;font style=&quot;font-size: 9px;&quot;&gt;Short leg&lt;sub&gt;0&lt;/sub&gt; Long leg&lt;sub&gt;1&lt;/sub&gt;&lt;br style=&quot;&quot;&gt;&lt;/font&gt;&lt;/li&gt;&lt;li style=&quot;text-align: left;&quot;&gt;&lt;font style=&quot;font-size: 9px;&quot;&gt;Close Positions&lt;/font&gt;&lt;/li&gt;&lt;/ul&gt;" style="rounded=0;whiteSpace=wrap;html=1;dashed=1;" parent="1" vertex="1">
          <mxGeometry x="330" y="150" width="130" height="80" as="geometry" />
        </mxCell>
        <mxCell id="s7d4PtiqQZ2FRYvxOLde-60" value="" style="endArrow=openAsync;html=1;rounded=0;endFill=0;" parent="1" edge="1">
          <mxGeometry width="50" height="50" relative="1" as="geometry">
            <mxPoint x="420" y="60" as="sourcePoint" />
            <mxPoint x="530" y="60" as="targetPoint" />
          </mxGeometry>
        </mxCell>
        <mxCell id="EoHH7yzKeFiSt7iv31zn-2" value="" style="shape=flexArrow;endArrow=classic;html=1;rounded=0;startSize=3;endSize=5;" edge="1" parent="1" source="s7d4PtiqQZ2FRYvxOLde-58">
          <mxGeometry width="50" height="50" relative="1" as="geometry">
            <mxPoint x="510" y="189.71" as="sourcePoint" />
            <mxPoint x="550" y="190" as="targetPoint" />
          </mxGeometry>
        </mxCell>
        <mxCell id="EoHH7yzKeFiSt7iv31zn-3" value="&lt;span style=&quot;font-size: 10px;&quot;&gt;&lt;b&gt;Trading&lt;br&gt;System&lt;/b&gt;&lt;/span&gt;" style="rounded=0;whiteSpace=wrap;html=1;dashed=1;" vertex="1" parent="1">
          <mxGeometry x="550" y="150" width="80" height="80" as="geometry" />
        </mxCell>
        <mxCell id="EoHH7yzKeFiSt7iv31zn-4" value="" style="shape=flexArrow;endArrow=classic;html=1;rounded=0;exitX=0.086;exitY=1.037;exitDx=0;exitDy=0;startSize=3;endSize=5;exitPerimeter=0;" edge="1" parent="1" source="s7d4PtiqQZ2FRYvxOLde-13">
          <mxGeometry width="50" height="50" relative="1" as="geometry">
            <mxPoint x="360" y="200" as="sourcePoint" />
            <mxPoint x="155" y="150" as="targetPoint" />
          </mxGeometry>
        </mxCell>
        <mxCell id="EoHH7yzKeFiSt7iv31zn-5" value="" style="group" vertex="1" connectable="0" parent="1">
          <mxGeometry x="20" y="150" width="230" height="80" as="geometry" />
        </mxCell>
        <mxCell id="s7d4PtiqQZ2FRYvxOLde-55" value="" style="rounded=0;whiteSpace=wrap;html=1;dashed=1;" parent="EoHH7yzKeFiSt7iv31zn-5" vertex="1">
          <mxGeometry width="230" height="80" as="geometry" />
        </mxCell>
        <mxCell id="s7d4PtiqQZ2FRYvxOLde-48" value="z-score" style="rounded=0;whiteSpace=wrap;html=1;" parent="EoHH7yzKeFiSt7iv31zn-5" vertex="1">
          <mxGeometry x="10" y="22.5" width="60" height="30" as="geometry" />
        </mxCell>
        <mxCell id="s7d4PtiqQZ2FRYvxOLde-51" value="&amp;nbsp;+ Close Threshold" style="endArrow=none;html=1;rounded=0;fontSize=10;" parent="EoHH7yzKeFiSt7iv31zn-5" edge="1">
          <mxGeometry width="50" height="50" relative="1" as="geometry">
            <mxPoint x="80" y="25" as="sourcePoint" />
            <mxPoint x="220" y="25" as="targetPoint" />
          </mxGeometry>
        </mxCell>
        <mxCell id="s7d4PtiqQZ2FRYvxOLde-52" value="&amp;nbsp;- Close Threshold" style="endArrow=none;html=1;rounded=0;fontSize=10;" parent="EoHH7yzKeFiSt7iv31zn-5" edge="1">
          <mxGeometry width="50" height="50" relative="1" as="geometry">
            <mxPoint x="80" y="53" as="sourcePoint" />
            <mxPoint x="220" y="53" as="targetPoint" />
            <mxPoint as="offset" />
          </mxGeometry>
        </mxCell>
        <mxCell id="s7d4PtiqQZ2FRYvxOLde-53" value="&amp;nbsp;- Open Threshold" style="endArrow=none;html=1;rounded=0;fontSize=10;" parent="EoHH7yzKeFiSt7iv31zn-5" edge="1">
          <mxGeometry x="0.0019" width="50" height="50" relative="1" as="geometry">
            <mxPoint x="80" y="65" as="sourcePoint" />
            <mxPoint x="220" y="65" as="targetPoint" />
            <mxPoint as="offset" />
          </mxGeometry>
        </mxCell>
        <mxCell id="s7d4PtiqQZ2FRYvxOLde-54" value="&amp;nbsp;+ Open Threshold" style="endArrow=none;html=1;rounded=0;fontSize=10;" parent="EoHH7yzKeFiSt7iv31zn-5" edge="1">
          <mxGeometry width="50" height="50" relative="1" as="geometry">
            <mxPoint x="80" y="10" as="sourcePoint" />
            <mxPoint x="220" y="10" as="targetPoint" />
            <mxPoint as="offset" />
          </mxGeometry>
        </mxCell>
      </root>
    </mxGraphModel>
  </diagram>
</mxfile>
